2016-10-27 20:18:47
running
2016-10-27 20:19:07
{'/Volumes/G-SPEED Q/Titan-HD/HM/IncomingQT/A2016_998_TEST_001': ['01837001.MOV', '01837002.MOV', '01837003.MOV']}
ffmpeg version 3.1.1 Copyright (c) 2000-2016 the FFmpeg developers
  built with Apple LLVM version 7.3.0 (clang-703.0.31)
  configuration: --prefix=/usr/local/Cellar/ffmpeg/3.1.1 --enable-shared --enable-pthreads --enable-gpl --enable-version3 --enable-hardcoded-tables --enable-avresample --cc=clang --host-cflags= --host-ldflags= --enable-opencl --enable-libx264 --enable-libmp3lame --enable-libxvid --enable-libfreetype --enable-libvorbis --enable-libvpx --enable-libass --enable-ffplay --enable-libfdk-aac --enable-libopus --enable-libx265 --disable-lzma --enable-nonfree --enable-vda
  libavutil      55. 28.100 / 55. 28.100
  libavcodec     57. 48.101 / 57. 48.101
  libavformat    57. 41.100 / 57. 41.100
  libavdevice    57.  0.101 / 57.  0.101
  libavfilter     6. 47.100 /  6. 47.100
  libavresample   3.  0.  0 /  3.  0.  0
  libswscale      4.  1.100 /  4.  1.100
  libswresample   2.  1.100 /  2.  1.100
  libpostproc    54.  0.100 / 54.  0.100
[concat @ 0x7fdbc9000000] Could not find codec parameters for stream 3 (Unknown: none): unknown codec
Consider increasing the value for the 'analyzeduration' and 'probesize' options
Guessed Channel Layout for Input Stream #0.1 : mono
Guessed Channel Layout for Input Stream #0.2 : mono
Input #0, concat, from 'concat.txt':
  Duration: N/A, start: 0.000000, bitrate: 52418 kb/s
    Stream #0:0(eng): Video: mpeg2video (4:2:2) (xd5b / 0x62356478), yuv422p(tv), 1920x1080 [SAR 1:1 DAR 16:9], 50114 kb/s, 29.97 fps, 29.97 tbr, 11988 tbn, 11988 tbc
    Metadata:
      handler_name    : DataHandler
      encoder         : 1080i5994 50 Mbit 4:2:2 LG
      timecode        : 04:00:00;00
    Stream #0:1(eng): Audio: pcm_s24be (in24 / 0x34326E69), 48000 Hz, 1 channels, s32 (24 bit), 1152 kb/s
    Metadata:
      handler_name    : DataHandler
    Stream #0:2(eng): Audio: pcm_s24be (in24 / 0x34326E69), 48000 Hz, 1 channels, s32 (24 bit), 1152 kb/s
    Metadata:
      handler_name    : DataHandler
    Stream #0:3: Unknown: none
[mov @ 0x7fdbc8868800] Using AVStream.codec to pass codec parameters to muxers is deprecated, use AVStream.codecpar instead.
    Last message repeated 2 times
Output #0, mov, to 'concat.mov':
  Metadata:
    timecode        : 01:00:00:00
    encoder         : Lavf57.41.100
    Stream #0:0(eng): Video: mpeg2video (xd5b / 0x62356478), yuv422p(tv), 1920x1080 [SAR 1:1 DAR 16:9], q=2-31, 50114 kb/s, 0.03 fps, 29.97 tbr, 11988 tbn, 11988 tbc
    Metadata:
      handler_name    : DataHandler
      encoder         : 1080i5994 50 Mbit 4:2:2 LG
      timecode        : 04:00:00;00
    Stream #0:1(eng): Audio: pcm_s24be (in24 / 0x34326E69), 48000 Hz, mono (24 bit), 1152 kb/s
    Metadata:
      handler_name    : DataHandler
    Stream #0:2(eng): Audio: pcm_s24be (in24 / 0x34326E69), 48000 Hz, mono (24 bit), 1152 kb/s
    Metadata:
      handler_name    : DataHandler
Stream mapping:
  Stream #0:0 -> #0:0 (copy)
  Stream #0:1 -> #0:1 (copy)
  Stream #0:2 -> #0:2 (copy)
Press [q] to stop, [?] for help
frame=  203 fps=0.0 q=-1.0 size=   43306kB time=00:00:07.24 bitrate=48989.3kbits/s speed=14.5x    frame=  292 fps=290 q=-1.0 size=   62467kB time=00:00:10.68 bitrate=47906.0kbits/s speed=10.6x    frame=  425 fps=281 q=-1.0 size=   90731kB time=00:00:15.12 bitrate=49149.7kbits/s speed=9.99x    frame=  603 fps=299 q=-1.0 size=  129274kB time=00:00:21.53 bitrate=49182.5kbits/s speed=10.7x    frame=  730 fps=290 q=-1.0 size=  156107kB time=00:00:25.77 bitrate=49622.9kbits/s speed=10.2x    frame=  858 fps=304 q=-1.0 Lsize=  183603kB time=00:00:30.03 bitrate=50084.2kbits/s speed=10.6x    
video:175132kB audio:8443kB subtitle:0kB other streams:0kB global headers:0kB muxing overhead: 0.015238%
ffmpeg version 3.1.1 Copyright (c) 2000-2016 the FFmpeg developers
  built with Apple LLVM version 7.3.0 (clang-703.0.31)
  configuration: --prefix=/usr/local/Cellar/ffmpeg/3.1.1 --enable-shared --enable-pthreads --enable-gpl --enable-version3 --enable-hardcoded-tables --enable-avresample --cc=clang --host-cflags= --host-ldflags= --enable-opencl --enable-libx264 --enable-libmp3lame --enable-libxvid --enable-libfreetype --enable-libvorbis --enable-libvpx --enable-libass --enable-ffplay --enable-libfdk-aac --enable-libopus --enable-libx265 --disable-lzma --enable-nonfree --enable-vda
  libavutil      55. 28.100 / 55. 28.100
  libavcodec     57. 48.101 / 57. 48.101
  libavformat    57. 41.100 / 57. 41.100
  libavdevice    57.  0.101 / 57.  0.101
  libavfilter     6. 47.100 /  6. 47.100
  libavresample   3.  0.  0 /  3.  0.  0
  libswscale      4.  1.100 /  4.  1.100
  libswresample   2.  1.100 /  2.  1.100
  libpostproc    54.  0.100 / 54.  0.100
Guessed Channel Layout for Input Stream #0.1 : mono
Guessed Channel Layout for Input Stream #0.2 : mono
Input #0, mov,mp4,m4a,3gp,3g2,mj2, from 'concat.mov':
  Metadata:
    major_brand     : qt  
    minor_version   : 512
    compatible_brands: qt  
    encoder         : Lavf57.41.100
  Duration: 00:00:30.02, start: 0.000000, bitrate: 50100 kb/s
    Stream #0:0(eng): Video: mpeg2video (4:2:2) (xd5b / 0x62356478), yuv422p(tv), 1920x1080 [SAR 1:1 DAR 16:9], 48511 kb/s, 29.01 fps, 29.97 tbr, 11988 tbn, 59.94 tbc (default)
    Metadata:
      handler_name    : DataHandler
      encoder         : 1080i5994 50 Mbit 4:2:2 LG
      timecode        : 01:00:00:00
    Stream #0:1(eng): Audio: pcm_s24be (in24 / 0x34326E69), 48000 Hz, 1 channels, s32 (24 bit), 1152 kb/s (default)
    Metadata:
      handler_name    : DataHandler
    Stream #0:2(eng): Audio: pcm_s24be (in24 / 0x34326E69), 48000 Hz, 1 channels, s32 (24 bit), 1152 kb/s
    Metadata:
      handler_name    : DataHandler
    Stream #0:3(eng): Data: none (tmcd / 0x64636D74), 0 kb/s
    Metadata:
      handler_name    : DataHandler
      timecode        : 01:00:00:00
Input #1, png_pipe, from '/Volumes/G-SPEED Q/Titan-HD/HM/Watermark/Video WaterMark_White.png':
  Duration: N/A, bitrate: N/A
    Stream #1:0: Video: png, rgba(pc), 319x180 [SAR 2835:2835 DAR 319:180], 25 tbr, 25 tbn, 25 tbc
-map_channel is forwarded to lavfi similarly to -af pan=0x4|c0=c0.
[pan @ 0x7fbb7bc027a0] Pure channel mapping detected: 0
[libx264 @ 0x7fbb7c01a800] using SAR=1/1
[libx264 @ 0x7fbb7c01a800] using cpu capabilities: MMX2 SSE2Fast SSSE3 SSE4.2 AVX FMA3 AVX2 LZCNT BMI2
[libx264 @ 0x7fbb7c01a800] profile High, level 2.0
[libx264 @ 0x7fbb7c01a800] 264 - core 148 r2668 fd2c324 - H.264/MPEG-4 AVC codec - Copyleft 2003-2016 - http://www.videolan.org/x264.html - options: cabac=1 ref=2 deblock=1:0:0 analyse=0x3:0x113 me=hex subme=6 psy=1 psy_rd=1.00:0.00 mixed_ref=1 me_range=16 chroma_me=1 trellis=1 8x8dct=1 cqm=0 deadzone=21,11 fast_pskip=1 chroma_qp_offset=-2 threads=6 lookahead_threads=1 sliced_threads=0 nr=0 decimate=1 interlaced=0 bluray_compat=0 constrained_intra=0 bframes=3 b_pyramid=2 b_adapt=1 b_bias=0 direct=1 weightb=1 open_gop=0 weightp=1 keyint=250 keyint_min=25 scenecut=40 intra_refresh=0 rc_lookahead=30 rc=abr mbtree=1 bitrate=700 ratetol=1.0 qcomp=0.60 qpmin=0 qpmax=69 qpstep=4 ip_ratio=1.40 aq=1:1.00
[flv @ 0x7fbb7c009200] Using AVStream.codec to pass codec parameters to muxers is deprecated, use AVStream.codecpar instead.
    Last message repeated 1 times
Output #0, flv, to 'A2016_998_TEST_001.flv':
  Metadata:
    major_brand     : qt  
    minor_version   : 512
    compatible_brands: qt  
    timecode        : 01:00:00:00
    encoder         : Lavf57.41.100
    Stream #0:0: Video: h264 (libx264) ([7][0][0][0] / 0x0007), yuv420p, 320x180 [SAR 1:1 DAR 16:9], q=-1--1, 700 kb/s, 29.97 fps, 1k tbn, 29.97 tbc (default)
    Metadata:
      encoder         : Lavc57.48.101 libx264
    Side data:
      cpb: bitrate max/min/avg: 0/0/700000 buffer size: 0 vbv_delay: -1
    Stream #0:1(eng): Audio: aac (LC) ([10][0][0][0] / 0x000A), 48000 Hz, mono, fltp (24 bit), 69 kb/s (default)
    Metadata:
      handler_name    : DataHandler
      encoder         : Lavc57.48.101 aac
Stream mapping:
  Stream #0:0 (mpeg2video) -> scale (graph 0)
  Stream #1:0 (png) -> overlay:overlay (graph 0)
  overlay (graph 0) -> Stream #0:0 (libx264)
  Stream #0:1 -> #0:1 (pcm_s24be (native) -> aac (native))
Press [q] to stop, [?] for help
[png @ 0x7fbb7c822a00] Invalid PNG signature 0x323031362D31302D.
Error while decoding stream #1:0: Invalid data found when processing input
frame=   57 fps=0.0 q=22.0 size=      44kB time=00:00:02.34 bitrate= 153.1kbits/s speed=4.69x    frame=  121 fps=120 q=17.0 size=     213kB time=00:00:04.48 bitrate= 389.8kbits/s speed=4.46x    frame=  182 fps=121 q=17.0 size=     422kB time=00:00:06.48 bitrate= 533.3kbits/s speed=4.31x    frame=  248 fps=124 q=16.0 size=     606kB time=00:00:08.68 bitrate= 571.8kbits/s speed=4.33x    frame=  316 fps=126 q=15.0 size=     800kB time=00:00:11.45 bitrate= 571.7kbits/s speed=4.57x    frame=  384 fps=128 q=13.0 size=     977kB time=00:00:13.73 bitrate= 582.9kbits/s speed=4.57x    frame=  454 fps=129 q=13.0 size=    1223kB time=00:00:16.06 bitrate= 623.7kbits/s speed=4.57x    frame=  522 fps=130 q=13.0 size=    1441kB time=00:00:18.34 bitrate= 643.6kbits/s speed=4.57x    frame=  590 fps=131 q=14.0 size=    1679kB time=00:00:21.07 bitrate= 652.7kbits/s speed=4.67x    frame=  657 fps=131 q=14.0 size=    1999kB time=00:00:23.31 bitrate= 702.4kbits/s speed=4.64x    frame=  725 fps=131 q=15.0 size=    2233kB time=00:00:25.57 bitrate= 715.3kbits/s speed=4.63x    frame=  791 fps=131 q=15.0 size=    2468kB time=00:00:27.77 bitrate= 727.9kbits/s speed=4.61x    frame=  857 fps=131 q=15.0 size=    2710kB time=00:00:29.95 bitrate= 741.3kbits/s speed=4.59x    frame=  858 fps=130 q=-1.0 Lsize=    2828kB time=00:00:30.03 bitrate= 771.3kbits/s speed=4.56x    
video:2530kB audio:257kB subtitle:0kB other streams:0kB global headers:0kB muxing overhead: 1.458420%
[libx264 @ 0x7fbb7c01a800] frame I:4     Avg QP: 9.37  size: 25798
[libx264 @ 0x7fbb7c01a800] frame P:345   Avg QP: 9.00  size:  6390
[libx264 @ 0x7fbb7c01a800] frame B:509   Avg QP:16.18  size:   555
[libx264 @ 0x7fbb7c01a800] consecutive B-frames: 15.2%  9.1% 24.5% 51.3%
[libx264 @ 0x7fbb7c01a800] mb I  I16..4:  2.2% 35.1% 62.7%
[libx264 @ 0x7fbb7c01a800] mb P  I16..4:  0.0%  0.1%  0.4%  P16..4: 38.0% 13.9% 18.4%  0.0%  0.0%    skip:29.2%
[libx264 @ 0x7fbb7c01a800] mb B  I16..4:  0.0%  0.0%  0.0%  B16..8:  6.6%  3.9%  1.6%  direct:10.7%  skip:77.2%  L0:22.9% L1:25.5% BI:51.6%
[libx264 @ 0x7fbb7c01a800] final ratefactor: 9.08
[libx264 @ 0x7fbb7c01a800] 8x8 transform intra:29.3% inter:32.0%
[libx264 @ 0x7fbb7c01a800] coded y,uvDC,uvAC intra: 88.1% 96.2% 91.4% inter: 25.3% 24.8% 20.4%
[libx264 @ 0x7fbb7c01a800] i16 v,h,dc,p: 34% 16% 44%  6%
[libx264 @ 0x7fbb7c01a800] i8 v,h,dc,ddl,ddr,vr,hd,vl,hu: 35% 15% 10%  5%  7%  7%  6%  6%  9%
[libx264 @ 0x7fbb7c01a800] i4 v,h,dc,ddl,ddr,vr,hd,vl,hu: 39% 12%  5%  5%  8% 10%  7%  7%  7%
[libx264 @ 0x7fbb7c01a800] i8c dc,h,v,p: 42% 15% 29% 14%
[libx264 @ 0x7fbb7c01a800] Weighted P-Frames: Y:0.0% UV:0.0%
[libx264 @ 0x7fbb7c01a800] ref P L0: 84.4% 15.6%
[libx264 @ 0x7fbb7c01a800] ref B L0: 90.4%  9.6%
[libx264 @ 0x7fbb7c01a800] ref B L1: 98.4%  1.6%
[libx264 @ 0x7fbb7c01a800] kb/s:697.80
[aac @ 0x7fbb7c01c000] Qavg: 233.775
ffmpeg version 3.1.1 Copyright (c) 2000-2016 the FFmpeg developers
  built with Apple LLVM version 7.3.0 (clang-703.0.31)
  configuration: --prefix=/usr/local/Cellar/ffmpeg/3.1.1 --enable-shared --enable-pthreads --enable-gpl --enable-version3 --enable-hardcoded-tables --enable-avresample --cc=clang --host-cflags= --host-ldflags= --enable-opencl --enable-libx264 --enable-libmp3lame --enable-libxvid --enable-libfreetype --enable-libvorbis --enable-libvpx --enable-libass --enable-ffplay --enable-libfdk-aac --enable-libopus --enable-libx265 --disable-lzma --enable-nonfree --enable-vda
  libavutil      55. 28.100 / 55. 28.100
  libavcodec     57. 48.101 / 57. 48.101
  libavformat    57. 41.100 / 57. 41.100
  libavdevice    57.  0.101 / 57.  0.101
  libavfilter     6. 47.100 /  6. 47.100
  libavresample   3.  0.  0 /  3.  0.  0
  libswscale      4.  1.100 /  4.  1.100
  libswresample   2.  1.100 /  2.  1.100
  libpostproc    54.  0.100 / 54.  0.100
Guessed Channel Layout for Input Stream #0.1 : mono
Guessed Channel Layout for Input Stream #0.2 : mono
Input #0, mov,mp4,m4a,3gp,3g2,mj2, from 'concat.mov':
  Metadata:
    major_brand     : qt  
    minor_version   : 512
    compatible_brands: qt  
    encoder         : Lavf57.41.100
  Duration: 00:00:30.02, start: 0.000000, bitrate: 50100 kb/s
    Stream #0:0(eng): Video: mpeg2video (4:2:2) (xd5b / 0x62356478), yuv422p(tv), 1920x1080 [SAR 1:1 DAR 16:9], 48511 kb/s, 29.01 fps, 29.97 tbr, 11988 tbn, 59.94 tbc (default)
    Metadata:
      handler_name    : DataHandler
      encoder         : 1080i5994 50 Mbit 4:2:2 LG
      timecode        : 01:00:00:00
    Stream #0:1(eng): Audio: pcm_s24be (in24 / 0x34326E69), 48000 Hz, 1 channels, s32 (24 bit), 1152 kb/s (default)
    Metadata:
      handler_name    : DataHandler
    Stream #0:2(eng): Audio: pcm_s24be (in24 / 0x34326E69), 48000 Hz, 1 channels, s32 (24 bit), 1152 kb/s
    Metadata:
      handler_name    : DataHandler
    Stream #0:3(eng): Data: none (tmcd / 0x64636D74), 0 kb/s
    Metadata:
      handler_name    : DataHandler
      timecode        : 01:00:00:00
[mpeg @ 0x7fba4a001800] Using AVStream.codec to pass codec parameters to muxers is deprecated, use AVStream.codecpar instead.
[mpeg @ 0x7fba4a001800] VBV buffer size not set, using default size of 130KB
If you want the mpeg file to be compliant to some specification
Like DVD, VCD or others, make sure you set the correct buffer size
Output #0, mpeg, to 'A2016_998_TEST_001.mpeg':
  Metadata:
    major_brand     : qt  
    minor_version   : 512
    compatible_brands: qt  
    encoder         : Lavf57.41.100
    Stream #0:0(eng): Video: mpeg2video (Main) (xvid / 0x64697678), yuv420p, 720x480 [SAR 32:27 DAR 16:9], q=2-31, 5000 kb/s, 29.97 fps, 90k tbn, 29.97 tbc (default)
    Metadata:
      handler_name    : DataHandler
      timecode        : 01:00:00:00
      encoder         : Lavc57.48.101 mpeg2video
    Side data:
      cpb: bitrate max/min/avg: 0/0/5000000 buffer size: 0 vbv_delay: -1
Stream mapping:
  Stream #0:0 -> #0:0 (mpeg2video (native) -> mpeg2video (native))
Press [q] to stop, [?] for help
frame=   62 fps=0.0 q=1.6 size=     936kB time=00:00:01.96 bitrate=3894.9kbits/s dup=15 drop=0 speed=3.91x    frame=  111 fps=110 q=2.0 size=    1778kB time=00:00:03.60 bitrate=4041.9kbits/s dup=15 drop=0 speed=3.56x    frame=  158 fps=104 q=1.6 size=    2660kB time=00:00:05.17 bitrate=4213.3kbits/s dup=15 drop=0 speed= 3.4x    frame=  206 fps=102 q=1.6 size=    3514kB time=00:00:06.77 bitrate=4249.9kbits/s dup=15 drop=0 speed=3.34x    frame=  253 fps=100 q=2.0 size=    4312kB time=00:00:08.34 bitrate=4234.6kbits/s dup=15 drop=0 speed=3.29x    frame=  303 fps=100 q=2.0 size=    5138kB time=00:00:10.01 bitrate=4204.8kbits/s dup=17 drop=0 speed=3.29x    frame=  364 fps=103 q=2.0 size=    5866kB time=00:00:12.04 bitrate=3989.4kbits/s dup=29 drop=0 speed=3.39x    frame=  412 fps=102 q=2.0 size=    6706kB time=00:00:13.64 bitrate=4025.5kbits/s dup=29 drop=0 speed=3.37x    frame=  461 fps=101 q=2.0 size=    7464kB time=00:00:15.28 bitrate=4001.1kbits/s dup=29 drop=0 speed=3.35x    frame=  510 fps=101 q=2.0 size=    8222kB time=00:00:16.91 bitrate=3981.5kbits/s dup=29 drop=0 speed=3.34x    frame=  559 fps=100 q=2.0 size=    9036kB time=00:00:18.55 bitrate=3990.0kbits/s dup=29 drop=0 speed=3.33x    frame=  620 fps=102 q=2.0 size=    9874kB time=00:00:20.58 bitrate=3929.0kbits/s dup=43 drop=0 speed=3.39x    frame=  667 fps=101 q=2.0 size=   10756kB time=00:00:22.15 bitrate=3977.0kbits/s dup=43 drop=0 speed=3.37x    frame=  715 fps=101 q=2.0 size=   11608kB time=00:00:23.75 bitrate=4002.7kbits/s dup=43 drop=0 speed=3.35x    frame=  762 fps=100 q=2.0 size=   12436kB time=00:00:25.32 bitrate=4022.7kbits/s dup=43 drop=0 speed=3.34x    frame=  810 fps=100 q=2.0 size=   13240kB time=00:00:26.92 bitrate=4028.0kbits/s dup=43 drop=0 speed=3.32x    frame=  857 fps=100 q=2.0 size=   14066kB time=00:00:28.49 bitrate=4043.8kbits/s dup=43 drop=0 speed=3.31x    frame=  903 fps=100 q=2.0 Lsize=   14898kB time=00:00:30.06 bitrate=4059.6kbits/s dup=45 drop=0 speed=3.31x    
video:14828kB audio:0kB subtitle:0kB other streams:0kB global headers:0kB muxing overhead: 0.472331%
ffmpeg version 3.1.1 Copyright (c) 2000-2016 the FFmpeg developers
  built with Apple LLVM version 7.3.0 (clang-703.0.31)
  configuration: --prefix=/usr/local/Cellar/ffmpeg/3.1.1 --enable-shared --enable-pthreads --enable-gpl --enable-version3 --enable-hardcoded-tables --enable-avresample --cc=clang --host-cflags= --host-ldflags= --enable-opencl --enable-libx264 --enable-libmp3lame --enable-libxvid --enable-libfreetype --enable-libvorbis --enable-libvpx --enable-libass --enable-ffplay --enable-libfdk-aac --enable-libopus --enable-libx265 --disable-lzma --enable-nonfree --enable-vda
  libavutil      55. 28.100 / 55. 28.100
  libavcodec     57. 48.101 / 57. 48.101
  libavformat    57. 41.100 / 57. 41.100
  libavdevice    57.  0.101 / 57.  0.101
  libavfilter     6. 47.100 /  6. 47.100
  libavresample   3.  0.  0 /  3.  0.  0
  libswscale      4.  1.100 /  4.  1.100
  libswresample   2.  1.100 /  2.  1.100
  libpostproc    54.  0.100 / 54.  0.100
Guessed Channel Layout for Input Stream #0.1 : mono
Guessed Channel Layout for Input Stream #0.2 : mono
Input #0, mov,mp4,m4a,3gp,3g2,mj2, from 'concat.mov':
  Metadata:
    major_brand     : qt  
    minor_version   : 512
    compatible_brands: qt  
    encoder         : Lavf57.41.100
  Duration: 00:00:30.02, start: 0.000000, bitrate: 50100 kb/s
    Stream #0:0(eng): Video: mpeg2video (4:2:2) (xd5b / 0x62356478), yuv422p(tv), 1920x1080 [SAR 1:1 DAR 16:9], 48511 kb/s, 29.01 fps, 29.97 tbr, 11988 tbn, 59.94 tbc (default)
    Metadata:
      handler_name    : DataHandler
      encoder         : 1080i5994 50 Mbit 4:2:2 LG
      timecode        : 01:00:00:00
    Stream #0:1(eng): Audio: pcm_s24be (in24 / 0x34326E69), 48000 Hz, 1 channels, s32 (24 bit), 1152 kb/s (default)
    Metadata:
      handler_name    : DataHandler
    Stream #0:2(eng): Audio: pcm_s24be (in24 / 0x34326E69), 48000 Hz, 1 channels, s32 (24 bit), 1152 kb/s
    Metadata:
      handler_name    : DataHandler
    Stream #0:3(eng): Data: none (tmcd / 0x64636D74), 0 kb/s
    Metadata:
      handler_name    : DataHandler
      timecode        : 01:00:00:00
-map_channel is forwarded to lavfi similarly to -af pan=0x4|c0=c0.
[pan @ 0x7fe871410ea0] Pure channel mapping detected: 0
[mp4 @ 0x7fe872030e00] Using AVStream.codec to pass codec parameters to muxers is deprecated, use AVStream.codecpar instead.
    Last message repeated 1 times
Output #0, mp4, to 'A2016_998_TEST_001.mp4':
  Metadata:
    major_brand     : qt  
    minor_version   : 512
    compatible_brands: qt  
    encoder         : Lavf57.41.100
    Stream #0:0(eng): Video: mpeg4 ( [0][0][0] / 0x0020), yuv420p, 420x270 [SAR 8:7 DAR 16:9], q=2-31, 372 kb/s, 0.03 fps, 11988 tbn, 29.97 tbc (default)
    Metadata:
      handler_name    : DataHandler
      timecode        : 01:00:00:00
      encoder         : Lavc57.48.101 mpeg4
    Side data:
      cpb: bitrate max/min/avg: 0/0/372000 buffer size: 0 vbv_delay: -1
    Stream #0:1(eng): Audio: aac (LC) ([64][0][0][0] / 0x0040), 44100 Hz, mono, fltp (24 bit), 69 kb/s (default)
    Metadata:
      handler_name    : DataHandler
      encoder         : Lavc57.48.101 aac
Stream mapping:
  Stream #0:0 -> #0:0 (mpeg2video (native) -> mpeg4 (native))
  Stream #0:1 -> #0:1 (pcm_s24be (native) -> aac (native))
Press [q] to stop, [?] for help
frame=   64 fps=0.0 q=5.3 size=     237kB time=00:00:02.10 bitrate= 924.5kbits/s dup=15 drop=0 speed=4.16x    frame=  116 fps=115 q=7.3 size=     354kB time=00:00:03.83 bitrate= 756.3kbits/s dup=15 drop=0 speed=3.81x    frame=  168 fps=111 q=7.9 size=     461kB time=00:00:05.57 bitrate= 678.0kbits/s dup=15 drop=0 speed=3.69x    frame=  221 fps=110 q=6.2 size=     572kB time=00:00:07.34 bitrate= 638.5kbits/s dup=15 drop=0 speed=3.64x    frame=  275 fps=109 q=5.3 size=     675kB time=00:00:09.14 bitrate= 604.5kbits/s dup=15 drop=0 speed=3.63x    frame=  341 fps=113 q=4.6 size=     814kB time=00:00:11.34 bitrate= 587.6kbits/s dup=29 drop=0 speed=3.75x    frame=  395 fps=112 q=7.6 size=     913kB time=00:00:13.14 bitrate= 568.8kbits/s dup=29 drop=0 speed=3.73x    frame=  445 fps=110 q=3.9 size=    1004kB time=00:00:14.81 bitrate= 555.3kbits/s dup=29 drop=0 speed=3.68x    frame=  500 fps=110 q=7.3 size=    1115kB time=00:00:16.65 bitrate= 548.7kbits/s dup=29 drop=0 speed=3.67x    frame=  555 fps=110 q=6.0 size=    1220kB time=00:00:18.48 bitrate= 540.6kbits/s dup=29 drop=0 speed=3.67x    frame=  621 fps=112 q=9.2 size=    1350kB time=00:00:20.68 bitrate= 534.6kbits/s dup=43 drop=0 speed=3.73x    frame=  674 fps=111 q=8.0 size=    1442kB time=00:00:22.45 bitrate= 526.2kbits/s dup=43 drop=0 speed=3.71x    frame=  727 fps=111 q=7.0 size=    1540kB time=00:00:24.22 bitrate= 520.8kbits/s dup=43 drop=0 speed= 3.7x    frame=  779 fps=110 q=7.2 size=    1628kB time=00:00:25.95 bitrate= 513.6kbits/s dup=43 drop=0 speed=3.68x    frame=  833 fps=110 q=8.3 size=    1729kB time=00:00:27.76 bitrate= 510.1kbits/s dup=43 drop=0 speed=3.68x    frame=  887 fps=110 q=8.5 size=    1822kB time=00:00:29.56 bitrate= 504.8kbits/s dup=43 drop=0 speed=3.67x    frame=  903 fps=110 q=7.9 Lsize=    1885kB time=00:00:30.09 bitrate= 513.2kbits/s dup=45 drop=0 speed=3.67x    
video:1600kB audio:259kB subtitle:0kB other streams:0kB global headers:0kB muxing overhead: 1.448315%
[aac @ 0x7fe872035c00] Qavg: 263.480
2016-10-27 20:19:35

2016-10-27 20:19:54
srce A2016_998_TEST_001.mov 391128fa84ceef8cfddb887e544ef1ce5cd90e52
2016-10-27 20:19:54
dest A2016_998_TEST_001.mov 391128fa84ceef8cfddb887e544ef1ce5cd90e52
2016-10-27 20:19:56
srce A2016_998_TEST_001.flv 225ee56b8918370f18ad79ba109077898dfabfc3
2016-10-27 20:19:56
dest A2016_998_TEST_001.flv 225ee56b8918370f18ad79ba109077898dfabfc3
2016-10-27 20:20:00
srce A2016_998_TEST_001.mp4 8d39575a2c95242e8d00c7c0f21d9fcd5c5b7cb8
2016-10-27 20:20:00
dest A2016_998_TEST_001.mp4 8d39575a2c95242e8d00c7c0f21d9fcd5c5b7cb8
2016-10-27 20:20:05
srce A2016_998_TEST_001.mpeg 599d12bc43dc9d985b0d980344f47ce083c0a459
2016-10-27 20:20:05
dest A2016_998_TEST_001.mpeg 599d12bc43dc9d985b0d980344f47ce083c0a459
